<?xml version="1.0" standalone="no"?><!DOCTYPE svg PUBLIC "-//W3C//DTD SVG 1.1//EN" "http://www.w3.org/Graphics/SVG/1.1/DTD/svg11.dtd"><svg t="1489485820787" class="icon" style="" viewBox="0 0 1024 1024" version="1.1" xmlns="http://www.w3.org/2000/svg" p-id="2030" xmlns:xlink="http://www.w3.org/1999/xlink" width="36" height="36"><defs><style type="text/css">@font-face { font-family: uc-nexus-iconfont; src: url("chrome-extension://pogijhnlcfmcppgimcaccdkmbedjkmhi/res/font_9qmmi8b8jsxxbt9.woff") format("woff"), url("chrome-extension://pogijhnlcfmcppgimcaccdkmbedjkmhi/res/font_9qmmi8b8jsxxbt9.ttf") format("truetype"); }
</style></defs><path d="M895.782292 565.038984c0.213871-8.695033 0.23843-17.541515 0.060375-26.411533 2.367931-119.969349-33.338293-221.09963-103.266945-292.484448-33.356712-34.038234-73.92057-60.164265-120.404254-77.963653C664.956136 103.376439 594.575182 52.355415 509.088182 52.355415S353.226369 103.376439 346.010013 168.180374c-46.483684 17.799388-87.041402 43.925419-120.394021 77.963653-69.949118 71.384817-105.666598 172.315554-103.287411 291.923676-0.208754 11.304464-0.138146 21.913079 0.213871 32.286334-18.124799 18.24248-32.324196 45.797046-21.949918 84.464717 7.712659 28.728298 28.967752 50.258661 55.048757 59.679217 13.254885 8.173147 28.823466 12.932544 45.480844 13.041014 33.254382 145.395438 153.970744 244.104577 311.612087 244.104577 157.351748 0 278.098809-98.955756 311.162856-244.436128 1.01819 0.223081 2.076288 0.345877 3.158946 0.345877 20.767999 0 39.868009-7.252171 54.936193-19.329231 19.695574-11.17348 35.101449-29.871331 41.413202-53.405327C934.845982 612.193956 916.417261 583.066569 895.782292 565.038984L895.782292 565.038984zM371.536386 391.588583c2.503007 4.190439 62.579267 103.249549 175.771259 146.186454 31.227212 11.843746 63.22395 18.62315 94.163613 25.172309 62.067614 13.150508 120.697943 25.572422 160.644747 77.42437 0.417509 0.542352 0.87902 1.040702 1.355881 1.512447-0.060375 2.615571-0.060375 2.619664-0.060375 2.619664 0 19.329231-1.460258 38.016849-4.276397 55.971779-51.354622 82.050738-136.558166 135.814222-242.110153 147.397025-7.866155-10.383488-23.89113-17.539468-42.50507-17.539468-26.399253 0-47.819099 14.286378-47.819099 31.871895 0 17.622356 21.419845 31.879058 47.819099 31.879058 23.658839 0 43.150776-11.514241 46.945195-26.572192 34.046421-3.9121 66.506716-12.048407 96.934726-24.335245 43.469024-17.556864 81.772398-43.126216 113.839745-76.010161 5.134951-5.255701 10.060123-10.69969 14.827707-16.287965-38.219463 116.403127-140.387377 191.232392-273.768177 191.244672l0 0c-0.23843-0.01228-0.89437-0.01228-1.131777-0.01228-171.147962 0-290.683429-122.381281-290.683429-297.886481l-0.318248-16.697287c-0.213871-7.157004 0.898463-27.2619 2.089591-46.539966 93.298919-33.006741 132.039245-127.841643 133.73384-132.104737L371.536386 391.588583zM513.299087 942.122201M433.071881 657.527444c0 30.555923-24.772196 55.329143-55.331189 55.329143-30.55797 0-55.330166-24.77322-55.330166-55.329143 0-30.558993 24.772196-55.332213 55.330166-55.332213C408.298662 602.195232 433.071881 626.968451 433.071881 657.527444zM690.735265 657.527444c0 30.068829-24.376177 54.44603-54.447053 54.44603-30.069853 0-54.447053-24.3772-54.447053-54.44603 0-30.071899 24.3772-54.447053 54.447053-54.447053C666.359089 603.080391 690.735265 627.455545 690.735265 657.527444z" p-id="2031" fill="#515151"></path></svg>