<?xml version="1.0" standalone="no"?><!DOCTYPE svg PUBLIC "-//W3C//DTD SVG 1.1//EN" "http://www.w3.org/Graphics/SVG/1.1/DTD/svg11.dtd"><svg t="1489112566713" class="icon" style="" viewBox="0 0 1025 1024" version="1.1" xmlns="http://www.w3.org/2000/svg" p-id="752" xmlns:xlink="http://www.w3.org/1999/xlink" width="25.0244140625" height="25"><defs><style type="text/css">@font-face { font-family: uc-nexus-iconfont; src: url("chrome-extension://pogijhnlcfmcppgimcaccdkmbedjkmhi/res/font_9qmmi8b8jsxxbt9.woff") format("woff"), url("chrome-extension://pogijhnlcfmcppgimcaccdkmbedjkmhi/res/font_9qmmi8b8jsxxbt9.ttf") format("truetype"); }
</style></defs><path d="M1024 512.256c1.344 278.72-225.92 508.608-508.48 509.184-281.152 0.576-515.328-228.864-510.08-519.296C10.368 229.824 232.32 2.944 514.688 2.56 797.12 2.24 1025.6 232.256 1024 512.256zM436.352 632.96C444.16 633.536 449.984 634.368 455.808 634.368c31.424 0.128 62.912 0.128 94.336 0.128 31.616 0 32.448-0.064 31.36-32.128-0.704-21.632 6.08-38.912 22.4-52.8 11.648-9.92 22.912-20.224 34.688-29.952 43.712-36.096 71.296-79.104 66.048-139.072-4.096-46.592-18.88-88.256-52.736-120.384C598.72 209.792 534.656 199.872 465.28 217.024 426.88 226.496 395.136 248.32 366.784 274.88 351.488 289.216 338.048 305.472 323.392 321.28 353.408 349.44 381.568 375.808 409.6 402.24c7.04 6.656 10.368 0.512 14.336-3.648 10.752-11.392 20.672-23.68 32.256-34.176 20.544-18.496 44.032-26.752 71.104-14.72 27.008 12.032 45.632 47.488 17.152 75.392C531.136 438.144 516.16 449.536 503.296 462.912c-19.264 19.968-40.32 39.168-55.424 62.08C426.24 557.696 440.96 596.096 436.352 632.96zM507.2 834.304c47.104 0 84.928-37.312 84.8-84.288-0.128-46.784-33.792-85.44-85.44-84.8-50.688 0.64-83.328 34.688-83.776 84.672C422.336 798.144 457.408 833.088 507.2 834.304z" p-id="753" fill="#d81e06"></path></svg>