<?xml version="1.0" standalone="no"?><!DOCTYPE svg PUBLIC "-//W3C//DTD SVG 1.1//EN" "http://www.w3.org/Graphics/SVG/1.1/DTD/svg11.dtd"><svg t="1489046598897" class="icon" style="" viewBox="0 0 1024 1024" version="1.1" xmlns="http://www.w3.org/2000/svg" p-id="4403" xmlns:xlink="http://www.w3.org/1999/xlink" width="26" height="26"><defs><style type="text/css">@font-face { font-family: uc-nexus-iconfont; src: url("chrome-extension://pogijhnlcfmcppgimcaccdkmbedjkmhi/res/font_9qmmi8b8jsxxbt9.woff") format("woff"), url("chrome-extension://pogijhnlcfmcppgimcaccdkmbedjkmhi/res/font_9qmmi8b8jsxxbt9.ttf") format("truetype"); }
</style></defs><path d="M791.365632 459.070464l-459.173888-0.791552c-0.185344-61.935616-16.846848-157.9264 36.027392-216.192 32.142336-35.520512 86.326272-72.068096 144.126976-72.068096 85.394432 0 149.245952 64.412672 180.165632 144.125952 9.009152 22.991872 16.935936 35.380224 36.037632 36.037632 47.898624 1.449984 44.985344-49.0752 36.028416-72.067072C719.913984 163.030016 636.118016 97.952768 512.346112 97.952768c-84.120576 0-130.475008 17.265664-180.154368 72.065024-76.008448 83.745792-72.25856 219.15136-72.067072 288.260096l-26.795008 0.791552c-25.044992 0-45.273088 20.033536-45.273088 44.66688l0 378.248192c0 24.774656 20.269056 44.755968 45.273088 44.755968l557.989888 0c25.009152 0 45.273088-19.989504 45.273088-44.755968L836.59264 503.737344C836.63872 479.058944 816.374784 459.070464 791.365632 459.070464L791.365632 459.070464zM765.679616 818.35008c0 9.965568-3.475456 18.51392-10.579968 25.520128-7.04512 7.051264-15.55968 10.578944-25.517056 10.578944L296.361984 854.449152c-9.965568 0-18.471936-3.477504-25.475072-10.578944-7.051264-7.049216-10.624-15.553536-10.624-25.520128L260.262912 565.635072c0-19.877888 16.165888-36.054016 36.098048-36.054016l433.212416 0c19.931136 0 36.10624 16.176128 36.10624 36.054016L765.679616 818.35008 765.679616 818.35008z" p-id="4404" fill="#8a8a8a"></path></svg>