<?xml version="1.0" standalone="no"?><!DOCTYPE svg PUBLIC "-//W3C//DTD SVG 1.1//EN" "http://www.w3.org/Graphics/SVG/1.1/DTD/svg11.dtd"><svg t="1491032110539" class="icon" style="" viewBox="0 0 1026 1024" version="1.1" xmlns="http://www.w3.org/2000/svg" p-id="2391" xmlns:xlink="http://www.w3.org/1999/xlink" width="25.048828125" height="25"><defs><style type="text/css">@font-face { font-family: uc-nexus-iconfont; src: url("chrome-extension://pogijhnlcfmcppgimcaccdkmbedjkmhi/res/font_9qmmi8b8jsxxbt9.woff") format("woff"), url("chrome-extension://pogijhnlcfmcppgimcaccdkmbedjkmhi/res/font_9qmmi8b8jsxxbt9.ttf") format("truetype"); }
</style></defs><path d="M963.087754 794.421169 928.842831 794.421169C917.403569 848.317046 868.930954 888.123077 813.294277 888.123077 757.649723 888.123077 709.208615 848.317046 697.775262 794.421169L682.259692 794.421169C668.589292 794.421169 655.541169 789.978585 644.830523 781.784615 634.082462 789.978585 621.034338 794.421169 607.365908 794.421169L442.092308 794.421169C430.651077 848.317046 382.209969 888.123077 326.537846 888.123077 270.8992 888.123077 222.458092 848.317046 211.018831 794.421169L139.342769 794.421169C105.198277 794.421169 77.428185 766.6176 77.428185 732.435692L77.428185 481.514338C79.403323 482.250831 81.390277 482.963692 83.387077 483.656862 32.344615 439.825723-0.001969 374.797785-0.001969 302.200123-0.001969 170.212431 106.885908 63.216246 238.735754 63.216246 327.294031 63.216246 404.588308 111.484062 445.800369 183.169969L607.395446 183.169969C641.545846 183.169969 669.312 210.973538 669.312 245.157415L669.312 315.764185C673.553723 314.846523 677.891938 314.383754 682.295138 314.383754L841.426708 314.383754C851.741538 314.383754 866.333538 318.200123 896.242215 346.464492 909.160369 358.669785 923.947323 374.494523 939.031631 392.260923L939.191138 392.455877 950.529969 405.817108 950.270031 405.817108C950.762338 406.407877 951.223138 407.000615 951.713477 407.593354 963.843938 422.598892 975.574646 438.258215 985.698462 452.832492 993.321354 463.822769 999.959631 474.155323 1005.416369 483.497354 1022.767262 513.142154 1025.004308 526.928738 1025.004308 535.648492L1025.004308 732.435692C1025.004308 766.6176 997.232246 794.421169 963.087754 794.421169ZM326.571323 839.132554C364.695631 839.132554 395.720862 808.077785 395.720862 769.906215 395.720862 731.742523 364.695631 700.685785 326.571323 700.685785 288.450954 700.685785 257.4592 731.742523 257.4592 769.906215 257.4592 808.077785 288.450954 839.132554 326.571323 839.132554ZM238.735754 113.043692C134.376369 113.043692 49.774277 197.730462 49.774277 302.200123 49.774277 406.667815 134.376369 491.356554 238.735754 491.356554 343.097108 491.356554 427.6992 406.667815 427.6992 302.200123 427.6992 197.730462 343.097108 113.043692 238.735754 113.043692ZM620.343138 376.3712 620.343138 245.157415C620.343138 237.983508 614.526031 232.160492 607.365908 232.160492L467.0464 232.160492C473.820554 254.312369 477.473477 277.826954 477.473477 302.200123 477.473477 434.185846 370.587569 541.182031 238.735754 541.182031 198.106585 541.182031 159.852308 531.010954 126.3616 513.088985L126.3616 732.465231C126.3616 739.639138 132.176738 745.462154 139.342769 745.462154L211.083815 745.462154C222.227692 692.3264 268.2368 653.402585 323.085785 651.791754L323.318154 651.791754 323.448123 651.791754 323.483569 651.791754 323.613538 651.791754 323.648985 651.791754 323.778954 651.791754 323.810462 651.791754 323.944369 651.791754 324.009354 651.791754 324.141292 651.791754 324.170831 651.791754 324.306708 651.791754 324.369723 651.791754 324.501662 651.791754 324.7616 651.791754 324.862031 651.791754 324.927015 651.791754 324.962462 651.791754 325.092431 651.791754 325.123938 651.791754 325.945108 651.791754 326.145969 651.791754 326.342892 651.791754 326.376369 651.791754 326.738708 651.791754 326.9632 651.791754 327.099077 651.791754 327.164062 651.791754 327.258585 651.791754 327.329477 651.791754 327.424 651.791754 327.490954 651.791754 327.589415 651.791754 327.656369 651.791754 327.7568 651.791754 327.821785 651.791754 327.922215 651.791754 327.9872 651.791754 328.081723 651.791754 328.146708 651.791754 328.247138 651.791754 328.377108 651.791754 328.674462 651.791754 328.873354 651.791754C328.904862 651.756308 329.005292 651.791754 329.099815 651.791754L329.330215 651.791754 329.365662 651.791754 329.4976 651.791754 329.531077 651.791754 329.692554 651.791754 329.857969 651.791754 329.857969 651.756308 330.218338 651.756308C385.004308 653.467569 430.948431 692.361846 442.092308 745.426708L607.365908 745.426708C614.526031 745.426708 620.343138 739.603692 620.343138 732.435692L620.343138 376.3712ZM813.323815 839.132554C851.414646 839.132554 882.471385 808.077785 882.471385 769.906215 882.471385 731.742523 851.446154 700.685785 813.323815 700.685785 775.201477 700.685785 744.176246 731.742523 744.176246 769.906215 744.176246 808.077785 775.201477 839.132554 813.323815 839.132554ZM976.070892 535.945846C975.905477 534.825354 974.229662 526.271015 960.163446 503.207385L956.874831 497.910154 963.643077 493.599508 956.742892 497.679754 959.832615 495.606154 956.512492 497.384369C949.352369 486.098708 940.445538 473.330215 930.782523 460.402215 930.717538 460.301785 930.652554 460.201354 930.581662 460.136369 925.162338 452.897477 919.443692 445.564062 913.5616 438.291692L794.594462 438.291692C787.426462 438.291692 781.611323 444.116677 781.611323 451.286646L781.611323 526.271015C781.611323 533.444923 787.426462 539.269908 794.594462 539.269908L976.035446 539.269908 976.070892 539.269908 976.070892 535.945846ZM976.165415 588.288 794.724431 588.288C760.577969 588.288 732.807877 560.490338 732.807877 526.300554L732.807877 451.320123C732.807877 417.136246 760.577969 389.334646 794.724431 389.334646L870.179446 389.334646C868.895508 388.084185 867.682462 386.865231 866.433969 385.648246 849.770338 369.392246 841.722092 364.622769 839.189662 363.372308L682.360123 363.372308C675.194092 363.372308 669.376985 369.197292 669.376985 376.3712L669.376985 732.268308C669.376985 739.444185 675.194092 745.2672 682.360123 745.2672L697.869785 745.2672C708.550892 694.957292 751.767631 656.364308 803.365415 651.986708 803.761231 651.957169 804.1216 651.957169 804.483938 651.921723L804.617846 651.921723 804.617846 652.116677 804.649354 652.116677 804.649354 651.921723 804.779323 651.921723 804.779323 652.087138 804.909292 651.921723 804.909292 652.053662 804.944738 652.053662 804.944738 651.921723 805.110154 652.022154 805.139692 652.022154 805.139692 651.921723 805.275569 651.921723 805.275569 651.986708 806.0928 651.856738 806.228677 651.856738 806.258215 651.856738 807.311754 651.856738 807.441723 651.856738 807.932062 651.856738 807.967508 651.856738 808.097477 651.856738 808.132923 651.856738 808.264862 651.856738 808.820185 651.856738 808.885169 651.856738 808.9856 651.856738 809.021046 651.856738 809.773292 651.856738 809.938708 651.821292 809.938708 651.892185 810.068677 651.821292 810.068677 651.921723 810.104123 651.921723 810.234092 651.821292 810.399508 651.957169 810.531446 651.821292 810.531446 651.957169 810.564923 651.957169 810.696862 651.856738 810.696862 651.921723 810.7264 651.921723 810.7264 651.856738 810.891815 651.921723 810.891815 651.892185 811.549538 651.892185 811.712985 651.892185 811.8784 651.892185 811.945354 651.892185 812.110769 651.892185 812.270277 651.892185 812.341169 651.892185 812.500677 651.892185 812.668062 651.892185 813.323815 651.892185 813.489231 651.892185 813.654646 651.892185 813.686154 651.892185 813.851569 651.892185 814.08 651.892185 814.211938 651.892185 814.276923 651.892185 814.377354 651.892185 814.442338 651.892185 814.542769 651.892185 814.607754 651.892185 814.702277 651.892185 814.773169 651.892185 814.869662 651.892185 814.932677 651.892185 815.033108 651.892185 815.098092 651.892185 815.198523 651.892185 815.263508 651.892185 815.428923 651.892185 815.625846 651.892185C815.724308 651.856738 815.8208 651.892185 815.885785 651.892185L815.986215 651.892185 816.0512 651.892185 816.151631 651.892185 816.248123 651.892185 816.348554 651.892185 816.413538 651.892185 816.513969 651.892185 816.578954 651.892185 816.679385 651.892185 816.7424 651.892185 816.838892 651.892185 816.907815 651.892185 817.004308 651.892185 817.069292 651.892185C817.104738 651.921723 817.134277 651.921723 817.169723 651.921723L817.205169 651.921723C817.234708 651.957169 817.270154 651.957169 817.299692 651.957169L817.465108 651.957169 817.532062 651.957169 817.632492 651.957169 817.697477 651.957169 817.795938 651.957169 817.862892 651.957169 817.957415 651.957169 818.0224 651.957169 818.122831 651.957169 818.187815 651.957169 818.288246 651.957169 818.353231 651.957169 818.453662 651.957169 818.518646 651.957169 818.613169 651.957169 818.678154 651.957169 818.843569 651.957169C819.044431 651.986708 819.306338 651.986708 819.536738 651.986708L819.767138 651.986708 819.796677 651.986708 819.897108 651.986708 819.928615 651.986708 820.062523 651.986708 820.094031 651.986708 820.424862 651.986708 820.590277 651.986708C820.850215 652.022154 821.1456 652.053662 821.407508 652.116677 821.4784 652.154092 821.543385 652.154092 821.572923 652.154092 821.637908 652.154092 821.673354 652.187569 821.738338 652.187569 821.803323 652.187569 821.838769 652.219077 821.903754 652.219077 821.968738 652.219077 821.998277 652.254523 822.065231 652.254523 822.134154 652.254523 822.163692 652.284062 822.230646 652.284062L822.230646 652.053662C874.322708 655.968492 918.065231 694.760369 928.842831 745.426708L963.052308 745.426708C970.218338 745.426708 976.035446 739.603692 976.035446 732.435692L976.165415 732.435692 976.165415 588.288ZM238.735754 340.031015C238.731815 340.031015 238.727877 340.031015 238.721969 340.031015 238.718031 340.031015 238.714092 340.031015 238.708185 340.031015L152.117169 340.031015C137.340062 340.031015 125.359262 328.050215 125.359262 313.271138 125.359262 298.494031 137.340062 286.513231 152.117169 286.513231L212.005415 286.513231 212.005415 176.683323C212.005415 161.92 223.972431 149.951015 238.735754 149.951015 253.499077 149.951015 265.468062 161.92 265.468062 176.683323L265.468062 313.298708C265.468062 328.062031 253.499077 340.031015 238.735754 340.031015Z" p-id="2392" fill="#707070"></path></svg>