<?xml version="1.0" standalone="no"?><!DOCTYPE svg PUBLIC "-//W3C//DTD SVG 1.1//EN" "http://www.w3.org/Graphics/SVG/1.1/DTD/svg11.dtd"><svg t="1491020455960" class="icon" style="" viewBox="0 0 1025 1024" version="1.1" xmlns="http://www.w3.org/2000/svg" p-id="14674" xmlns:xlink="http://www.w3.org/1999/xlink" width="25.0244140625" height="25"><defs><style type="text/css">@font-face { font-family: uc-nexus-iconfont; src: url("chrome-extension://pogijhnlcfmcppgimcaccdkmbedjkmhi/res/font_9qmmi8b8jsxxbt9.woff") format("woff"), url("chrome-extension://pogijhnlcfmcppgimcaccdkmbedjkmhi/res/font_9qmmi8b8jsxxbt9.ttf") format("truetype"); }
</style></defs><path d="M1005.354 431.048l-79.714-79.715c-25.074-25.074-65.921-25.058-91.026 0.015l-17.218 17.218L817.396 179.65c0-66.596-54.17-120.781-120.766-120.781L120.765 58.869c-66.596 0-120.766 54.185-120.766 120.781l0 662.114c0 66.596 54.17 120.766 120.766 120.766l575.863 0c66.597 0 120.766-54.17 120.767-120.766L817.395 710.139l187.957-187.956C1030.49 497.062 1030.49 456.168 1005.354 431.048zM753.046 841.765c0 31.107-25.309 56.416-56.416 56.416L120.765 898.181c-31.107 0-56.416-25.309-56.416-56.416L64.349 179.651c0-31.122 25.309-56.431 56.416-56.431L696.63 123.22c31.107 0 56.416 25.309 56.416 56.431l0 252.434 0.83 0-216.52 216.52-44.649 215.436 215.437-44.649 44.902-44.902L753.046 841.765zM588.179 720.438l48.127 48.13-60.711 12.584L588.179 720.438zM697.636 738.906l-79.79-79.798L801.605 475.35l79.794 79.794L697.636 738.906zM926.895 509.646l-79.794-79.794 33.023-33.023 79.731 79.856L926.895 509.646zM543.13 321.953 153.542 321.953c-17.93 0-32.466-16.818-32.466-34.746 0-17.929 14.536-34.746 32.466-34.746L543.13 252.461c17.93 0 32.466 16.818 32.466 34.746C575.596 305.135 561.059 321.953 543.13 321.953zM543.13 544.647 153.542 544.647c-17.93 0-32.466-16.818-32.466-34.746s14.536-34.746 32.466-34.746L543.13 475.155c17.93 0 32.466 16.818 32.466 34.746S561.059 544.647 543.13 544.647zM353.386 697.849 235.122 697.849l-6.902 0-74.681 0c-17.925 0-32.464 16.822-32.464 34.746 0 17.925 14.539 34.747 32.464 34.747l74.681 0 6.902 0 118.264 0c17.925 0 32.464-16.822 32.464-34.747C385.85 714.671 371.312 697.849 353.386 697.849z" p-id="14675" fill="#707070"></path></svg>