<?xml version="1.0" standalone="no"?><!DOCTYPE svg PUBLIC "-//W3C//DTD SVG 1.1//EN" "http://www.w3.org/Graphics/SVG/1.1/DTD/svg11.dtd"><svg t="1491020086513" class="icon" style="" viewBox="0 0 1024 1024" version="1.1" xmlns="http://www.w3.org/2000/svg" p-id="4060" xmlns:xlink="http://www.w3.org/1999/xlink" width="25" height="25"><defs><style type="text/css">@font-face { font-family: uc-nexus-iconfont; src: url("chrome-extension://pogijhnlcfmcppgimcaccdkmbedjkmhi/res/font_9qmmi8b8jsxxbt9.woff") format("woff"), url("chrome-extension://pogijhnlcfmcppgimcaccdkmbedjkmhi/res/font_9qmmi8b8jsxxbt9.ttf") format("truetype"); }
</style></defs><path d="M617.50055 193.298291L473.422204 444.821425c-15.553912-35.405616-71.118217-119.31488-143.566703-251.523134H260.988508l156.869391 266.156091H285.035675V513.483761h154.720496v85.955831H285.035675v49.936245h154.720496v127.705806h62.317977V649.375837h149.399421V599.439592h-150.422705v-85.955831h150.422705v-54.029379H528.270211l155.539122-266.156091h-66.308783z" fill="#707070" p-id="4061"></path><path d="M214.326771 870.916758c-33.666034 0-61.294694-27.526332-61.294693-61.294693V170.581393c0-33.666034 27.526332-61.294694 61.294693-61.294694h521.363046c33.666034 0 61.294694 27.526332 61.294694 61.294694v424.560408c24.251824 2.865194 47.173379 9.925852 68.253023 20.261017V163.623064c0-67.434396-55.154992-122.589387-122.589388-122.589388H207.368442c-67.434396 0-122.589387 55.154992-122.589387 122.589388v653.059658c0 67.434396 55.154992 122.589387 122.589387 122.589388h396.829419c-15.963226-20.158689-28.344959-43.182572-36.326571-68.253023H214.326771z" fill="#707070" p-id="4062"></path><path d="M771.30009 635.35685c-94.653742 0-171.40002 76.746278-171.40002 171.40002s76.746278 171.40002 171.40002 171.40002 171.40002-76.746278 171.40002-171.40002c-0.102328-94.653742-76.746278-171.40002-171.40002-171.40002z m0 301.050065c-71.629859 0-129.752373-58.122514-129.752373-129.752373s58.122514-129.752373 129.752373-129.752374 129.752373 58.122514 129.752373 129.752374c-0.102328 71.732187-58.122514 129.752373-129.752373 129.752373z" fill="#707070" p-id="4063"></path><path d="M790.026182 700.437694h-36.224243V828.552813h100.486459v-37.247527H790.026182z" fill="#707070" p-id="4064"></path></svg>