<?xml version="1.0" standalone="no"?><!DOCTYPE svg PUBLIC "-//W3C//DTD SVG 1.1//EN" "http://www.w3.org/Graphics/SVG/1.1/DTD/svg11.dtd"><svg t="1491020393158" class="icon" style="" viewBox="0 0 1024 1024" version="1.1" xmlns="http://www.w3.org/2000/svg" p-id="12654" xmlns:xlink="http://www.w3.org/1999/xlink" width="25" height="25"><defs><style type="text/css">@font-face { font-family: uc-nexus-iconfont; src: url("chrome-extension://pogijhnlcfmcppgimcaccdkmbedjkmhi/res/font_9qmmi8b8jsxxbt9.woff") format("woff"), url("chrome-extension://pogijhnlcfmcppgimcaccdkmbedjkmhi/res/font_9qmmi8b8jsxxbt9.ttf") format("truetype"); }
</style></defs><path d="M514.513638 768.545731H171.600109c-27.442174 0-56.400723-20.494089-56.400723-47.934215V369.230454h100.340762v194.381557c0 9.480154 10.793799 16.630969 19.608427 16.63097 1.829683 0 5.312941-0.332763 7.309518-1.164158l93.880045-34.759883c5.653895-2.162446 11.847377-3.32558 17.835059-3.325579s11.994817 1.163134 17.648711 3.325579l93.228854 34.759883c1.995552 0.831395 1.116035 1.164158 2.944695 1.164158 8.814629 0 13.755899-7.150815 13.755899-16.63097V369.230454h331.738845v83.958597c3.436159 16.382165 12.574336 16.630969 23.420353 16.630969 10.846017 0 23.313869-0.248804 26.750028-16.630969V221.672197c0-54.883325-38.449966-101.245876-93.333291-101.245877H171.599085c-54.883325 0-105.547219 46.363575-105.547219 101.245877v498.938295c0 54.883325 50.664918 98.104596 105.547219 98.104596h342.914553c16.382165-3.436159 16.630969-12.417681 16.63097-23.264722 0.001024-10.843969-0.248804-23.468476-16.63097-26.904635z m-82.934711-598.972915v345.973923l-45.003855-17.96202c-11.308813-4.323868-21.587598-6.48529-33.561937-6.48529s-26.368119 2.161422-37.676933 6.48529l-50.650583 17.96202V169.572816h166.893308z m338.746317 0c27.442174 0 43.16291 24.65823 43.162909 52.099381v98.411762h-331.738845v-150.511143h288.575936z m-655.126882 52.100405c0-27.442174 28.959573-52.099381 56.400723-52.099381h43.940039v150.511142h-100.340762v-98.411761z" fill="#707070" p-id="12655"></path><path d="M772.986322 531.845969c-102.947574 0-186.269314 83.322764-186.269314 186.104469 0 102.947574 83.32174 186.270338 186.269314 186.270337 102.781704 0 186.104468-83.322764 186.104468-186.270337 0-102.781704-83.322764-186.104468-186.104468-186.104469z m0 322.480874c-75.172637 0-136.375382-61.202745-136.375382-136.376405 0-75.172637 61.202745-136.210536 136.375382-136.210537 75.173661 0 136.210536 61.0379 136.210536 136.210537 0 75.173661-61.036876 136.376406-136.210536 136.376405z" fill="#707070" p-id="12656"></path><path d="M780.723823 693.668997v-56.213352c0-13.804022-11.281169-24.946966-25.085191-24.946966s-25.08519 11.142944-25.08519 24.946966v76.83645l72.939543 53.053642c4.8225 4.8225 12.936791 7.317708 19.256211 7.317709s13.619723-2.495209 18.443246-7.317709c9.812917-9.812917 7.103716-25.446622-2.7092-35.258515l-57.759419-38.418225z" fill="#707070" p-id="12657"></path></svg>