<?xml version="1.0" standalone="no"?><!DOCTYPE svg PUBLIC "-//W3C//DTD SVG 1.1//EN" "http://www.w3.org/Graphics/SVG/1.1/DTD/svg11.dtd"><svg t="1489046663644" class="icon" style="" viewBox="0 0 1024 1024" version="1.1" xmlns="http://www.w3.org/2000/svg" p-id="5249" xmlns:xlink="http://www.w3.org/1999/xlink" width="26" height="26"><defs><style type="text/css">@font-face { font-family: uc-nexus-iconfont; src: url("chrome-extension://pogijhnlcfmcppgimcaccdkmbedjkmhi/res/font_9qmmi8b8jsxxbt9.woff") format("woff"), url("chrome-extension://pogijhnlcfmcppgimcaccdkmbedjkmhi/res/font_9qmmi8b8jsxxbt9.ttf") format("truetype"); }
</style></defs><path d="M734.422305 523.27166c40.967445-55.275196 65.576833-126.076584 65.576833-203.269427C799.999138 143.27223 671.060431 0 511.999992 0 352.943849 0 223.999414 143.27223 223.999414 320.002233c0 77.192843 24.615116 147.9928 65.576833 203.269427C214.363553 549.278463 160.0004 619.942401 160.0004 703.997753l0 127.999461c0 106.044588 85.962479 192.002771 191.998476 192.002771l320.002233 0c106.041724 0 191.998476-85.956752 191.998476-192.002771l0-127.999461C864.00388 619.942401 809.640726 549.278463 734.422305 523.27166L734.422305 523.27166zM288.004156 320.002233c0-141.388011 100.285979-256.003218 224.001563-256.003218 123.708425 0 223.994404 114.615207 223.994404 256.003218s-100.285979 255.997491-223.994404 255.997491C388.290136 575.999723 288.004156 461.390244 288.004156 320.002233L288.004156 320.002233zM799.999138 815.995671c0 79.538094-70.330334 144.0053-157.087449 144.0053L381.092591 960.000971c-86.757115 0-157.093177-64.467206-157.093177-144.0053l0-95.996374c0-68.032331 51.634186-124.704942 120.823393-139.765807 47.169904 37.479635 104.771738 59.765249 167.182911 59.765249 62.405447 0 120.011576-22.285614 167.177184-59.765249C748.372111 595.294355 800.004865 651.966965 800.004865 719.999296l0 95.996374L799.999138 815.995671zM799.999138 815.995671" p-id="5250" fill="#8a8a8a"></path></svg>