<?xml version="1.0" standalone="no"?><!DOCTYPE svg PUBLIC "-//W3C//DTD SVG 1.1//EN" "http://www.w3.org/Graphics/SVG/1.1/DTD/svg11.dtd"><svg t="1489051123575" class="icon" style="" viewBox="0 0 1024 1024" version="1.1" xmlns="http://www.w3.org/2000/svg" p-id="1380" xmlns:xlink="http://www.w3.org/1999/xlink" width="27" height="27"><defs><style type="text/css">@font-face { font-family: uc-nexus-iconfont; src: url("chrome-extension://pogijhnlcfmcppgimcaccdkmbedjkmhi/res/font_9qmmi8b8jsxxbt9.woff") format("woff"), url("chrome-extension://pogijhnlcfmcppgimcaccdkmbedjkmhi/res/font_9qmmi8b8jsxxbt9.ttf") format("truetype"); }
</style></defs><path d="" p-id="1381" fill="#0e9c17"></path><path d="M-892.414 203.279v0 0 0 0z" p-id="1382" fill="#0e9c17"></path><path d="M587.287 511.645c-12.402 0-25.024 12.527-25.024 24.961 0 12.653 12.527 25.085 25.024 25.085 18.898 0 31.3-12.402 31.3-25.085 0.062-12.435-12.371-24.961-31.3-24.961zM724.836 511.645c-12.402 0-24.864 12.527-24.864 24.961 0 12.653 12.527 25.085 24.864 25.085 18.774 0 31.269-12.402 31.269-25.085 0.092-12.435-12.496-24.961-31.269-24.961zM331.028 330.301c-18.711 0-37.676 12.371-37.676 31.148 0 18.742 18.961 31.269 37.676 31.269s31.178-12.527 31.178-31.269c0-18.742-12.465-31.148-31.178-31.148zM506.033 392.811c18.805 0 31.239-12.558 31.239-31.269 0-18.839-12.465-31.21-31.239-31.21-18.742 0-37.551 12.371-37.551 31.21 0 18.711 18.774 31.269 37.551 31.269zM515.437 73.479c-241.857 0-438.199 196.247-438.199 438.167 0 242.015 196.34 438.167 438.167 438.167 242.015 0 438.106-196.153 438.106-438.167 0.029-241.922-196.092-438.167-438.074-438.167zM412.189 649.385c-31.178 0-56.231-6.278-87.565-12.527l-87.406 43.765 24.961-75.191c-62.481-43.706-99.904-100.183-99.904-168.789 0-118.898 112.558-212.62 249.918-212.62 122.992 0 230.642 74.818 252.324 175.567-7.968-0.97-15.996-1.499-24.084-1.499-118.773 0-212.587 88.626-212.587 197.871 0 18.212 2.843 35.741 7.716 52.482-7.716 0.562-15.463 0.937-23.367 0.937zM781.1 736.918l18.839 62.511-68.539-37.551c-25.024 6.249-50.172 12.496-75.038 12.496-119.055 0-212.681-81.253-212.681-181.44 0-99.966 93.658-181.47 212.681-181.47 112.306 0 212.305 81.442 212.305 181.47-0.062 56.45-37.426 106.373-87.565 143.985z" p-id="1383" fill="#0e9c17"></path></svg>